<svg width="24" height="23" viewBox="0 0 24 23" fill="none" xmlns="http://www.w3.org/2000/svg">
<path fill-rule="evenodd" clip-rule="evenodd" d="M12 0C5.37 0 0 5.14225 0 11.4911C0 16.5759 3.435 20.8706 8.205 22.3932C8.805 22.4938 9.03 22.149 9.03 21.8474C9.03 21.5745 9.015 20.6695 9.015 19.7072C6 20.2386 5.22 19.0033 4.98 18.357C4.845 18.0266 4.26 17.0068 3.75 16.7339C3.33 16.5184 2.73 15.9869 3.735 15.9726C4.68 15.9582 5.355 16.8057 5.58 17.1504C6.66 18.8884 8.385 18.4001 9.075 18.0984C9.18 17.3515 9.495 16.8488 9.84 16.5615C7.17 16.2742 4.38 15.2831 4.38 10.8878C4.38 9.63813 4.845 8.60393 5.61 7.79956C5.49 7.51228 5.07 6.33445 5.73 4.75443C5.73 4.75443 6.735 4.45279 9.03 5.93226C9.99 5.67371 11.01 5.54444 12.03 5.54444C13.05 5.54444 14.07 5.67371 15.03 5.93226C17.325 4.43842 18.33 4.75443 18.33 4.75443C18.99 6.33445 18.57 7.51228 18.45 7.79956C19.215 8.60393 19.68 9.62376 19.68 10.8878C19.68 15.2975 16.875 16.2742 14.205 16.5615C14.64 16.9206 15.015 17.6101 15.015 18.6873C15.015 20.2243 15 21.4596 15 21.8474C15 22.149 15.225 22.5081 15.825 22.3932C18.2072 21.623 20.2772 20.1569 21.7437 18.2012C23.2101 16.2455 23.9993 13.8987 24 11.4911C24 5.14225 18.63 0 12 0Z" fill="#1481BA"/>
</svg>
