<svg width="28" height="20" viewBox="0 0 28 20" fill="none" xmlns="http://www.w3.org/2000/svg">
<path d="M26 0H2C1.46957 0 0.960859 0.201777 0.585786 0.560941C0.210714 0.920106 0 1.40724 0 1.91517V17.2366C0 17.7445 0.210714 18.2316 0.585786 18.5908C0.960859 18.95 1.46957 19.1517 2 19.1517H26C26.5304 19.1517 27.0391 18.95 27.4142 18.5908C27.7893 18.2316 28 17.7445 28 17.2366V1.91517C28 1.40724 27.7893 0.920106 27.4142 0.560941C27.0391 0.201777 26.5304 0 26 0ZM23.8 1.91517L14 8.40761L4.2 1.91517H23.8ZM2 17.2366V2.78658L13.43 10.3611C13.5974 10.4723 13.7963 10.5319 14 10.5319C14.2037 10.5319 14.4026 10.4723 14.57 10.3611L26 2.78658V17.2366H2Z" fill="#1481BA"/>
</svg>
